<svg width="37" height="36" viewBox="0 0 37 36" fill="none" xmlns="http://www.w3.org/2000/svg">
<path opacity="0.6" d="M18.6 5C15.9478 5 13.4043 6.05357 11.5289 7.92893C9.65354 9.8043 8.59998 12.3478 8.59998 15C8.59998 24 18.6 31 18.6 31C18.6 31 28.6 24 28.6 15C28.6 12.3478 27.5464 9.8043 25.671 7.92893C23.7957 6.05357 21.2521 5 18.6 5ZM18.6 19C17.8089 19 17.0355 18.7654 16.3777 18.3259C15.7199 17.8864 15.2072 17.2616 14.9045 16.5307C14.6017 15.7998 14.5225 14.9956 14.6768 14.2196C14.8312 13.4437 15.2121 12.731 15.7715 12.1716C16.331 11.6122 17.0437 11.2312 17.8196 11.0769C18.5955 10.9225 19.3998 11.0017 20.1307 11.3045C20.8616 11.6072 21.4863 12.1199 21.9259 12.7777C22.3654 13.4355 22.6 14.2089 22.6 15C22.6 16.0609 22.1785 17.0783 21.4284 17.8284C20.6783 18.5786 19.6608 19 18.6 19Z" fill="#AC0000"/>
<path d="M9.59998 31H27.6" stroke="white" stroke-width="1.5" stroke-linecap="round" stroke-linejoin="round"/>
<path d="M18.6 19C20.8091 19 22.6 17.2091 22.6 15C22.6 12.7909 20.8091 11 18.6 11C16.3908 11 14.6 12.7909 14.6 15C14.6 17.2091 16.3908 19 18.6 19Z" stroke="white" stroke-width="1.5" stroke-linecap="round" stroke-linejoin="round"/>
<path d="M28.6 15C28.6 24 18.6 31 18.6 31C18.6 31 8.59998 24 8.59998 15C8.59998 12.3478 9.65354 9.8043 11.5289 7.92893C13.4043 6.05357 15.9478 5 18.6 5C21.2521 5 23.7957 6.05357 25.671 7.92893C27.5464 9.8043 28.6 12.3478 28.6 15V15Z" stroke="white" stroke-width="1.5" stroke-linecap="round" stroke-linejoin="round"/>
</svg>
