<svg width="18" height="18" viewBox="0 0 18 18" fill="none" xmlns="http://www.w3.org/2000/svg">
<path d="M13.7153 1.33049L13.6761 1.29132C12.3066 0.469595 10.7022 0 9.00003 0C7.45444 0 5.98705 0.391265 4.71524 1.07611H4.69573C3.6196 1.66309 2.70004 2.46529 1.93699 3.40438C1.93699 3.40438 1.91748 3.40438 1.91748 3.4239C1.89796 3.44341 1.89796 3.44341 1.89796 3.46306C1.21311 4.34345 0.684954 5.3804 0.35238 6.476C0.35238 6.49552 0.35238 6.49552 0.332864 6.51517C0.137019 7.23918 0.0196526 7.98255 0 8.74558V8.7651V8.80426V8.99997C0 11.4064 0.958731 13.5977 2.50435 15.2216L2.56303 15.2803C4.20662 16.9631 6.47608 18 8.99999 18C13.9696 18 18 13.9696 18 9.0001C18 5.77195 16.2782 2.91539 13.7152 1.33062L13.7153 1.33049ZM17.3935 7.12173H16.8849C16.611 7.12173 16.3762 7.2391 16.2392 7.41515C16.1219 7.5912 16.1022 7.80642 16.1805 8.02163C16.2784 8.27602 16.1219 8.62811 15.848 8.78467C15.7109 8.86287 15.5545 8.99989 15.398 9.13677L14.4784 7.47367C14.4784 7.45416 14.4589 7.4345 14.4393 7.4345C14.5566 7.33665 14.6545 7.21928 14.7132 7.0824C14.811 6.84766 14.811 6.61281 14.6936 6.45625C14.6154 6.31923 14.4784 6.26055 14.3024 6.26055C14.2437 6.26055 14.2045 6.22138 14.1654 6.20186C14.0872 6.12366 14.048 6.00616 14.048 5.86928C14.0675 5.45834 13.6959 5.02805 13.2262 4.89103C12.8741 4.79317 12.698 4.93019 12.6393 5.00839C12.5611 5.10625 12.4632 5.30181 12.6197 5.65404C12.7176 5.88878 12.7371 6.08447 12.6979 6.18233C12.6979 6.18233 12.6784 6.20185 12.6784 6.2215C12.5611 6.26067 12.3458 6.16281 12.248 5.96711C12.1698 5.83009 12.0328 5.73237 11.8567 5.69321C11.6023 5.63452 11.3089 5.71272 11.035 5.86926L10.6829 6.104C10.3111 6.33874 9.90034 6.49526 9.78281 6.49526C9.7046 6.49526 9.62627 6.43658 9.62627 6.37789C9.62627 6.29969 9.84149 6.00613 10.1741 5.77142L10.9958 5.18443C11.4263 4.87136 11.622 4.26488 11.4263 3.77575L11.2306 3.22793C11.1132 2.89534 11.2306 2.42573 11.5045 2.19099L11.5436 2.15223C11.8371 1.89784 12.4045 1.68263 12.7958 1.68263H13.5197C15.4567 2.8761 16.8849 4.8326 17.3936 7.1217L17.3935 7.12173ZM13.9893 12.5021L14.0675 13.0108C14.1262 13.3825 13.9696 13.9695 13.7544 14.2824L13.461 14.6934C13.2262 15.0064 12.9718 15.202 12.8937 15.2412C12.8154 15.202 12.6393 14.9868 12.4827 14.6347L10.9371 10.9565C10.7414 10.4869 10.1936 10.1152 9.66546 10.1152H9.54809C9.19598 10.1152 8.82421 9.84134 8.70685 9.50877L8.62865 9.25438C8.51128 8.90228 8.62865 8.37399 8.86339 8.10008L8.92208 8.02188C9.15682 7.74798 9.68512 7.51322 10.0569 7.53275L13.5199 7.70881C13.7352 7.70881 13.9309 7.66964 14.1264 7.59144C14.1264 7.61095 14.1264 7.63061 14.1459 7.63061L15.1242 9.41106C14.9872 9.58711 14.8503 9.76316 14.7721 9.91971L14.2634 10.898C14.0479 11.3283 13.9306 12.0327 13.9893 12.5021ZM8.60883 0.410938L8.51098 0.54796C8.37395 0.743666 8.00232 0.91973 7.72844 0.91973C7.33717 0.91973 6.76971 1.19363 6.4371 1.54588L6.06532 1.91765C5.96747 2.0155 5.83058 2.07419 5.71322 2.05467C5.59585 2.03515 5.47848 1.97647 5.40014 1.83945L5.08707 1.33055C6.16319 0.782729 7.35667 0.450159 8.60881 0.410994L8.60883 0.410938ZM3.03274 6.18261C3.07191 6.33915 2.99357 6.53471 2.85669 6.59355C2.798 6.61306 2.73932 6.61306 2.70015 6.59355C2.64146 6.57403 2.60229 6.51535 2.58278 6.43701C2.50457 6.16311 2.2697 5.86969 2.01545 5.81086C1.78071 5.77169 1.35027 5.92823 1.01766 6.08476L0.861124 6.16296C1.15455 5.34123 1.56547 4.55856 2.07413 3.85436L2.32852 4.0891C2.50458 4.24564 2.85682 4.51953 3.07204 4.51953C3.30678 4.51953 3.65903 4.24563 3.83508 4.0891C3.91328 4.0109 4.01114 3.97173 4.08947 3.99125C4.12864 3.99125 4.16767 4.01076 4.18732 4.04993C4.26553 4.1673 4.26553 4.55859 4.08947 4.91083C3.93293 5.24342 3.65904 5.45865 3.54164 5.45865C3.3851 5.45865 3.24822 5.51733 3.1307 5.65435C3.03271 5.79138 2.99354 5.98708 3.03271 6.18264L3.03274 6.18261ZM0.391506 8.98048L3.79589 9.15653C4.16766 9.17605 4.6568 9.39127 4.85234 9.62612C5.04805 9.84135 5.10673 10.35 5.00888 10.6826L4.83283 11.2499C4.71546 11.6217 4.36323 12.1108 4.03062 12.3455L3.54149 12.6781C3.15022 12.952 2.75895 13.539 2.66109 14.0084L2.54358 14.6934C1.21321 13.1673 0.391475 11.1912 0.391475 8.99996V8.98044L0.391506 8.98048ZM9.00021 17.6086C6.61325 17.6086 4.44151 16.6304 2.87629 15.0457L3.05235 14.0674C3.13055 13.6956 3.44361 13.187 3.75669 12.9913L4.24582 12.6587C4.63709 12.3848 5.04803 11.8175 5.20456 11.3674L5.38061 10.8001C5.51763 10.3305 5.41978 9.70447 5.14587 9.37186C4.87196 9.05879 4.28497 8.78488 3.8155 8.76538L0.41112 8.58919C0.450289 7.94355 0.548143 7.31754 0.704542 6.71088L1.2132 6.43698C1.54579 6.26093 1.87839 6.18259 1.93708 6.20224C1.99577 6.22176 2.13279 6.35878 2.21099 6.55434C2.26967 6.7304 2.38704 6.86741 2.54358 6.94561C2.62178 6.98478 2.70012 7.00429 2.79797 7.00429C2.87617 7.00429 2.93499 6.98478 3.01319 6.96512C3.32627 6.84776 3.50232 6.476 3.42413 6.1239C3.40462 6.0457 3.42413 5.96736 3.4633 5.92819C3.48282 5.90868 3.52199 5.88903 3.56116 5.88903C3.91326 5.88903 4.28503 5.49776 4.46123 5.1065C4.63728 4.73473 4.71562 4.18694 4.53943 3.87387C4.46123 3.73684 4.3242 3.65864 4.16765 3.61948C3.97195 3.59996 3.75671 3.65865 3.58066 3.81518C3.36544 4.01089 3.1307 4.14777 3.09153 4.14777C3.03285 4.14777 2.81763 4.01075 2.6024 3.81518L2.3285 3.5608C2.99368 2.73907 3.81542 2.05426 4.73498 1.52611L5.06757 2.0544C5.2046 2.26962 5.43935 2.42617 5.67406 2.44566H5.75226C5.96749 2.44566 6.1827 2.34781 6.33925 2.19128L6.71103 1.81951C6.96542 1.5456 7.45454 1.31085 7.72846 1.31085C8.11973 1.31085 8.60886 1.07611 8.82407 0.782561L9.09812 0.391576C10.4285 0.411092 11.7003 0.724163 12.8155 1.29164H12.796C12.3069 1.29164 11.6612 1.52637 11.2894 1.83946L11.2503 1.85897C10.859 2.19156 10.6829 2.83722 10.859 3.32635L11.0547 3.87417C11.1721 4.20675 11.0352 4.6372 10.7613 4.83289L9.93955 5.41987C9.58744 5.67426 9.21567 6.06552 9.21567 6.33943C9.21567 6.61334 9.45041 6.84808 9.76349 6.84808C10.0179 6.84808 10.5265 6.61334 10.8788 6.39812L11.2309 6.16338C11.4069 6.04601 11.6027 6.00684 11.7395 6.04601C11.8177 6.06553 11.8569 6.08518 11.8766 6.14387C12.0723 6.47645 12.4636 6.65252 12.757 6.5548C12.8743 6.51563 12.9722 6.43743 13.0114 6.32006C13.1092 6.10484 13.0896 5.79177 12.9332 5.47884C12.8745 5.3223 12.8745 5.26362 12.894 5.2441C12.894 5.22458 12.9527 5.20493 13.0897 5.2441C13.3831 5.3223 13.6375 5.5962 13.618 5.83108C13.618 6.06582 13.6962 6.30068 13.8332 6.43756C13.9506 6.55493 14.0876 6.61362 14.2442 6.61362C14.2833 6.61362 14.3028 6.63313 14.3028 6.63313C14.3224 6.6723 14.342 6.77016 14.2833 6.88752C14.2051 7.08323 13.8529 7.29846 13.4616 7.27879L9.99851 7.10273C9.50938 7.08322 8.86373 7.35712 8.55065 7.72888L8.49196 7.80708C8.15937 8.17885 8.02236 8.86352 8.17889 9.33315L8.25709 9.58754C8.41363 10.0767 8.94194 10.4679 9.4701 10.4679H9.58747C9.93957 10.4679 10.3505 10.7418 10.4875 11.0744L12.0136 14.7526C12.1506 15.0657 12.4441 15.5939 12.7767 15.5939C13.0701 15.5939 13.5005 15.1243 13.6767 14.8895L13.9702 14.4786C14.2636 14.0873 14.4201 13.4025 14.3614 12.933L14.2832 12.4244C14.2245 12.0331 14.3419 11.4069 14.518 11.0743L15.0266 10.0961C15.2027 9.74399 15.6331 9.29389 15.9657 9.09831C16.4157 8.84392 16.6309 8.27658 16.4744 7.84615C16.4549 7.78747 16.4352 7.68961 16.4744 7.61141C16.5331 7.53321 16.6504 7.49404 16.7875 7.49404H17.3745C17.4527 7.98317 17.5115 8.47229 17.5115 8.98095C17.6091 13.7541 13.7546 17.6088 9.00026 17.6088L9.00021 17.6086Z" fill="#D1D1D1"/>
</svg>
