<svg width="25" height="25" viewBox="0 0 25 25" fill="none" xmlns="http://www.w3.org/2000/svg">
<path d="M23.611 16.6666C23.2429 16.6672 22.89 16.8138 22.6296 17.074C22.3694 17.3344 22.2228 17.6873 22.2223 18.0556V21.3889C22.2217 21.6097 22.1337 21.8214 21.9775 21.9774C21.8214 22.1337 21.6097 22.2217 21.389 22.2222H3.611C3.39021 22.2217 3.17853 22.1337 3.02248 21.9774C2.86624 21.8214 2.77825 21.6097 2.77769 21.3889V18.0556C2.77769 17.5593 2.513 17.1008 2.08332 16.8526C1.65364 16.6047 1.12423 16.6047 0.694376 16.8526C0.264693 17.1007 0 17.5593 0 18.0556V21.3889C0.00111609 22.3461 0.382064 23.2641 1.05894 23.941C1.73584 24.6179 2.65379 24.9989 3.61102 24.9999H21.389C22.3462 24.9988 23.2642 24.6179 23.9411 23.941C24.618 23.2641 24.9989 22.3461 25 21.3889V18.0556C24.9994 17.6873 24.8529 17.3344 24.5926 17.074C24.3322 16.8138 23.9794 16.6672 23.6111 16.6666H23.611Z" fill="#AC0000"/>
<path d="M12.5001 4.72296e-06C12.132 0.000562771 11.7789 0.147138 11.5188 0.407372C11.2583 0.667791 11.1118 1.02066 11.1112 1.38894V13.9789L6.72247 10.3221C6.43937 10.0868 6.07443 9.97336 5.70777 10.0067C5.34133 10.04 5.00277 10.2174 4.76692 10.4999C4.53143 10.7831 4.41796 11.1478 4.45126 11.5145C4.48474 11.8811 4.66201 12.2195 4.94454 12.4555L11.6112 18.0112C11.6813 18.0609 11.7557 18.1041 11.8334 18.1401C11.8842 18.1742 11.9372 18.2045 11.9923 18.2311C12.316 18.3674 12.6809 18.3674 13.0046 18.2311C13.0581 18.2045 13.1102 18.1744 13.1601 18.1413C13.2378 18.105 13.3122 18.0618 13.3824 18.0124L20.049 12.4566C20.3429 12.212 20.5231 11.8571 20.5469 11.4756C20.5709 11.0939 20.4362 10.7193 20.1751 10.4401C19.9139 10.1609 19.5491 10.0016 19.1667 9.99996C18.8419 10.0005 18.5276 10.1145 18.2778 10.3221L13.889 13.9789V1.38894C13.8885 1.02063 13.7419 0.667748 13.4815 0.407367C13.2213 0.147138 12.8682 0.000561866 12.5001 4.72296e-06Z" fill="#AC0000"/>
</svg>
