<svg width="18" height="18" viewBox="0 0 18 18" fill="none" xmlns="http://www.w3.org/2000/svg">
<path fill-rule="evenodd" clip-rule="evenodd" d="M3 1H15C16.1046 1 17 1.89543 17 3V11H18V3C18 1.34315 16.6569 0 15 0H3C1.34315 0 0 1.34315 0 3V15C0 16.6569 1.34315 18 3 18H15C16.6569 18 18 16.6569 18 15V14H17V15C17 16.1046 16.1046 17 15 17H3C1.89543 17 1 16.1046 1 15V3C1 1.89543 1.89543 1 3 1Z" fill="#D1D1D1"/>
<path d="M18 14C18 13.7239 17.7761 13.5 17.5 13.5C17.2239 13.5 17 13.7239 17 14H18ZM18 15V14H17V15H18Z" fill="#D1D1D1"/>
<path d="M17 11C17 11.2761 17.2239 11.5 17.5 11.5C17.7761 11.5 18 11.2761 18 11H17ZM18 11V8H17V11H18Z" fill="#D1D1D1"/>
<path d="M13 14H5" stroke="#D1D1D1" stroke-linecap="round"/>
<path d="M9.5 5C9.5 4.72386 9.27614 4.5 9 4.5C8.72386 4.5 8.5 4.72386 8.5 5H9.5ZM8.5 5V12H9.5V5H8.5Z" fill="#D1D1D1"/>
<path d="M6 9L9 12L12 9" stroke="#D1D1D1" stroke-linecap="round" stroke-linejoin="round"/>
</svg>
