<svg width="27" height="24" viewBox="0 0 27 24" fill="none" xmlns="http://www.w3.org/2000/svg">
<path d="M17.7187 2.27325L17.1652 2.8125C15.9258 4.02525 14.904 4.5675 14.0535 4.92225C13.203 5.27625 12.4883 5.382 11.7863 5.85975C11.0379 6.36975 9.95034 7.34775 9.49219 9.09375C8.51006 9.28425 7.79119 9.61875 7.22419 10.0545C6.66394 10.485 6.24206 10.9748 5.72231 11.508C5.71809 11.514 5.72484 11.5253 5.72231 11.5313C4.97644 12.2933 4.32422 13.1138 3.05859 13.5473L2.53125 13.7348V21.75H18.6157C19.5379 21.7058 20.1774 21.138 20.5664 20.5778C20.9545 20.0183 21.1697 19.4123 21.2785 18.9143C21.5587 17.6453 22.0691 13.992 22.0691 13.992L22.0961 13.9223V13.8518C22.0691 13.3448 21.8346 12.9143 21.5418 12.5153L22.491 10.008L23.9946 7.992L24.4164 7.45275L23.8621 7.008L18.3254 2.742L17.7187 2.27325ZM17.7719 4.33575L22.1746 7.73475L21.0144 9.25725L20.936 9.3285L20.909 9.4455L20.1445 11.4608C19.7454 11.3145 19.3345 11.2118 18.8789 11.2268H18.8257L13.5 11.25H12.6562V14.1563C12.5381 14.9738 12.0268 15.2903 11.3906 15.516C11.1797 15.5918 11.1535 15.5505 10.9687 15.5858V11.2275C10.8304 8.44725 11.9441 7.647 12.8149 7.05525C13.0553 6.891 13.7599 6.70125 14.7656 6.282C15.606 5.93025 16.6506 5.2995 17.7719 4.33575ZM9.33441 10.7813C9.33103 10.9515 9.27112 11.0715 9.28125 11.25V17.25H10.125C10.125 17.25 11.0278 17.241 11.9973 16.8983C12.9659 16.5555 14.1362 15.753 14.3437 14.3438V12.75L18.8789 12.7268H18.9051C19.2754 12.7087 19.6388 12.8219 19.9155 13.0414C20.1923 13.261 20.3599 13.5691 20.3816 13.8983C20.3782 13.9103 20.3394 14.1885 20.3293 14.25H16.875V15.75H20.1184C20.0289 16.3298 19.9471 16.6935 19.8543 17.25H16.875V18.75H19.591C19.4913 19.1129 19.3312 19.4604 19.116 19.7813C18.8857 20.115 18.6874 20.241 18.5102 20.25H4.21875V14.6483C5.58647 14.0033 6.43697 13.0755 6.98709 12.516C7.55747 11.9355 7.94897 11.496 8.33203 11.2035C8.58262 11.013 8.97497 10.9043 9.33441 10.7813Z" fill="#009EE1"/>
</svg>
