<svg width="25" height="25" viewBox="0 0 25 25" fill="none" xmlns="http://www.w3.org/2000/svg">
<path d="M4.16664 25H20.8333C21.4437 25 22.0224 24.8647 22.5453 24.6275C22.55 24.6254 22.5546 24.6229 22.5593 24.6208C23.9967 23.963 25 22.5144 25 20.8333V4.16667C25 1.86917 23.1308 0 20.8333 0H4.16667C1.86917 0 0 1.86917 0 4.16667V20.8333C0 23.1308 1.86914 25 4.16664 25ZM2.08331 20.8333V17.5614L6.86146 12.7832C7.67343 11.9713 8.99385 11.9717 9.8051 12.7832L19.9384 22.9165H4.16641C3.01754 22.9165 2.08307 21.9821 2.08307 20.8332L2.08331 20.8333ZM4.16664 2.08334H20.8333C21.9822 2.08334 22.9166 3.0178 22.9166 4.16667V20.8333C22.9166 21.4163 22.6751 21.9422 22.288 22.3202L11.2784 11.3095C9.65456 9.68613 7.01224 9.68613 5.38837 11.3095L2.08319 14.6147V4.1659C2.08319 3.01703 3.01766 2.08256 4.16652 2.08256L4.16664 2.08334Z" fill="white"/>
<path d="M17.7083 10.9375C19.7182 10.9375 21.3542 9.30197 21.3542 7.29168C21.3542 5.28138 19.7182 3.64584 17.7083 3.64584C15.6985 3.64584 14.0625 5.28138 14.0625 7.29168C14.0625 9.30197 15.6985 10.9375 17.7083 10.9375ZM17.7083 5.72918C18.5698 5.72918 19.2708 6.43019 19.2708 7.29168C19.2708 8.15316 18.5698 8.85418 17.7083 8.85418C16.8468 8.85418 16.1458 8.15316 16.1458 7.29168C16.1458 6.43019 16.8468 5.72918 17.7083 5.72918Z" fill="white"/>
</svg>
