<svg width="20" height="19" viewBox="0 0 20 19" fill="none" xmlns="http://www.w3.org/2000/svg">
<path d="M10.4231 1.08312C10.3106 0.966458 10.1579 0.901062 9.99865 0.901062C9.8394 0.901062 9.68672 0.966462 9.57409 1.08312L1.17409 9.77332C1.02248 9.93016 0.963283 10.1588 1.01873 10.3731C1.07431 10.5875 1.23609 10.7548 1.44329 10.8123C1.65048 10.8697 1.87145 10.8085 2.02306 10.6516L9.99998 2.39913L17.9769 10.6484C18.1285 10.8054 18.3495 10.8667 18.5567 10.8093C18.7639 10.7518 18.9256 10.5844 18.9812 10.3701C19.0367 10.1557 18.9775 9.92712 18.8259 9.77012L10.4231 1.08312Z" fill="#D1D1D1"/>
<path d="M4.29998 10.2637C4.14088 10.2637 3.98819 10.3291 3.8757 10.4455C3.7632 10.5619 3.69998 10.7198 3.69998 10.8844V17.0389C3.69998 17.5328 3.88962 18.0064 4.22712 18.3557C4.56476 18.7049 5.02252 18.9011 5.49998 18.9011H6.32496C6.80243 18.9011 7.26018 18.7049 7.59782 18.3557C7.93532 18.0064 8.12497 17.5328 8.12497 17.0389V13.9352C8.12497 13.7706 8.18818 13.6127 8.30068 13.4963C8.41318 13.3799 8.56586 13.3145 8.72497 13.3145H11.275C11.4341 13.3145 11.5868 13.3799 11.6993 13.4963C11.8117 13.6127 11.875 13.7706 11.875 13.9352V17.0389C11.875 17.5328 12.0646 18.0064 12.4021 18.3557C12.7397 18.7049 13.1975 18.9011 13.675 18.9011H14.4999C14.9774 18.9011 15.4352 18.7049 15.7728 18.3557C16.1103 18.0064 16.2999 17.5328 16.2999 17.0389V10.8316C16.2999 10.6098 16.1856 10.4049 15.9999 10.294C15.8143 10.1832 15.5856 10.1832 15.3999 10.294C15.2143 10.4049 15.0999 10.6098 15.0999 10.8316V17.0389C15.0999 17.2035 15.0367 17.3614 14.9242 17.4778C14.8117 17.5942 14.6591 17.6596 14.4999 17.6596H13.675C13.5159 17.6596 13.3632 17.5942 13.2507 17.4778C13.1382 17.3614 13.075 17.2035 13.075 17.0389V13.9352C13.075 13.4413 12.8853 12.9677 12.5478 12.6184C12.2102 12.2692 11.7524 12.0731 11.275 12.0731H8.72497C8.2475 12.0731 7.78975 12.2692 7.45211 12.6184C7.11461 12.9677 6.92497 13.4413 6.92497 13.9352V17.0389C6.92497 17.2035 6.86175 17.3614 6.74925 17.4778C6.63675 17.5942 6.48407 17.6596 6.32496 17.6596H5.49998C5.34088 17.6596 5.18819 17.5942 5.0757 17.4778C4.9632 17.3614 4.89998 17.2035 4.89998 17.0389V10.8844C4.89998 10.7198 4.83677 10.5619 4.72427 10.4455C4.61177 10.3291 4.45909 10.2637 4.29998 10.2637Z" fill="#D1D1D1"/>
</svg>
