<svg width="18" height="18" viewBox="0 0 18 18" fill="none" xmlns="http://www.w3.org/2000/svg">
<path d="M9 2.35693C9.35878 2.35693 9.68346 2.50231 9.91868 2.73751C10.1539 2.9727 10.2993 3.2974 10.2993 3.65619C10.2993 4.01497 10.1539 4.33965 9.91868 4.57487C9.68349 4.81006 9.35878 4.95544 9 4.95544C8.64121 4.95544 8.31654 4.81006 8.08132 4.57487C7.84613 4.33968 7.70074 4.01497 7.70074 3.65619C7.70074 3.29741 7.84612 2.97273 8.08132 2.73751C8.31651 2.50232 8.64121 2.35693 9 2.35693ZM9.42557 3.23047C9.31661 3.12151 9.16625 3.05427 9 3.05427C8.83375 3.05427 8.68325 3.12166 8.57443 3.23047C8.46547 3.33943 8.39823 3.48979 8.39823 3.65604C8.39823 3.82229 8.46563 3.97279 8.57443 4.08161C8.68339 4.19056 8.83375 4.25781 9 4.25781C9.16625 4.25781 9.31675 4.19041 9.42557 4.08161C9.53453 3.97265 9.60177 3.82229 9.60177 3.65604C9.60177 3.48979 9.53437 3.33928 9.42557 3.23047Z" fill="#D1D1D1"/>
<path d="M8.99999 5.95233C9.40532 5.95233 9.77374 6.11794 10.0404 6.38475C10.3072 6.65154 10.4728 7.01984 10.4728 7.42513V14.1701C10.4728 14.5754 10.3072 14.9437 10.0404 15.2105C9.77355 15.4772 9.40528 15.6429 8.99999 15.6429C8.5947 15.6429 8.22623 15.4773 7.95961 15.2105C7.69282 14.9437 7.52719 14.5754 7.52719 14.1701V7.42513C7.52719 7.0198 7.6928 6.65137 7.95961 6.38475C8.2264 6.11796 8.5947 5.95233 8.99999 5.95233ZM8.99999 6.64966C8.78705 6.64966 8.59327 6.73698 8.45257 6.87769C8.31186 7.01841 8.22453 7.21219 8.22453 7.42512V14.1701C8.22453 14.383 8.31185 14.5768 8.45257 14.7175C8.59328 14.8582 8.78706 14.9455 8.99999 14.9455C9.21291 14.9455 9.40671 14.8582 9.54741 14.7175C9.68811 14.5768 9.77545 14.383 9.77545 14.1701V7.42512C9.77545 7.21218 9.68812 7.0184 9.54741 6.87769C9.4067 6.73699 9.21291 6.64966 8.99999 6.64966Z" fill="#D1D1D1"/>
<path d="M9 0C11.4852 0 13.7351 1.00738 15.364 2.63598C16.9926 4.26458 18 6.51456 18 9C18 11.4852 16.9926 13.7351 15.364 15.364C13.7354 16.9926 11.4854 18 9 18C6.51484 18 4.26494 16.9926 2.63598 15.364C1.00738 13.7354 0 11.4854 0 9C0 6.51484 1.00738 4.26494 2.63598 2.63598C4.26458 1.00738 6.51456 0 9 0ZM14.8707 3.12909C13.3683 1.62673 11.2925 0.697328 9 0.697328C6.70722 0.697328 4.63154 1.62657 3.12929 3.12909C1.62693 4.63146 0.697528 6.70726 0.697528 8.9998C0.697528 11.2926 1.62677 13.3683 3.12929 14.8705C4.63166 16.3729 6.70746 17.3023 9 17.3023C11.2928 17.3023 13.3685 16.373 14.8707 14.8705C16.3731 13.3681 17.3025 11.2923 17.3025 8.9998C17.3025 6.70702 16.3732 4.63134 14.8707 3.12909Z" fill="#D1D1D1"/>
</svg>
