<svg width="140" height="185" viewBox="0 0 140 185" fill="none" xmlns="http://www.w3.org/2000/svg">
<path d="M56.9505 61.7217C69.711 51.9943 81.2297 47.1168 78.1147 26.5054C74.9998 5.89392 52.9998 4.98759 44.9998 5.03482C36.9998 5.08205 32.7583 7.98015 32.7583 7.98015L32.7583 0H54.7846C54.7846 0 91.9998 0.0472279 93.5278 26.8122C95.0559 53.5771 73.9998 59.8511 73.9998 59.8511C73.9998 59.8511 89.9997 59.8511 101.5 75.5C111.712 89.3971 114.31 103.572 107.213 119.29C99.0424 137.388 81.9997 147 62.4997 143.5C44.385 140.249 33.149 119.071 32.765 106.938C32.7337 105.949 32.765 104.405 32.765 104.405H37.4927C37.4927 104.405 38.5044 124.829 55.7913 132.453C73.0782 140.077 93.8202 129.613 98.41 107.556C103 85.5 84.4997 65.5149 65.9481 67.4607C50.604 69.0701 40.869 79.4587 37.9463 94.3295C37.1925 98.1653 37.4927 104.329 37.4927 104.329H32.765C32.765 104.329 31.8888 95.5 34.3544 88.6775C38.6976 76.6593 41.4997 73.5 56.9505 61.7217Z" fill="url(#paint0_linear_73_1278)" fill-opacity="0.8"/>
<path d="M10.9195 6.03903C7.54031 2.77026 0 0 0 0H15.9425H32.7586V143.643H0C0 143.643 7.53948 140.547 10.9195 137.172C13.45 134.646 14.8506 129.408 14.8506 129.408V13.8035C14.8506 13.8035 13.4901 8.52561 10.9195 6.03903Z" fill="url(#paint1_linear_73_1278)" fill-opacity="0.8"/>
<path d="M140 83.936V58.8418C140 58.8418 131.602 63.8217 125.776 65.9807C120.395 67.9748 111.552 69.6583 111.552 69.6583V73.1195C111.552 73.1195 120.395 74.803 125.776 76.7971C131.602 78.9561 140 83.936 140 83.936Z" fill="url(#paint2_linear_73_1278)" fill-opacity="0.8"/>
<path d="M94.3105 0H140V25.0942C140 25.0942 133.162 15.8527 127.977 11.6818C116.335 2.31901 94.3105 3.46127 94.3105 3.46127V0Z" fill="url(#paint3_linear_73_1278)" fill-opacity="0.8"/>
<rect y="159" width="140" height="26" rx="3" fill="url(#paint4_linear_73_1278)"/>
<path d="M14.94 176V169H18.22C19.06 169 19.7 169.167 20.14 169.5C20.58 169.827 20.8 170.267 20.8 170.82C20.8 171.193 20.7133 171.513 20.54 171.78C20.3667 172.04 20.1333 172.243 19.84 172.39C19.5533 172.53 19.24 172.6 18.9 172.6L19.08 172.24C19.4733 172.24 19.8267 172.313 20.14 172.46C20.4533 172.6 20.7 172.807 20.88 173.08C21.0667 173.353 21.16 173.693 21.16 174.1C21.16 174.7 20.93 175.167 20.47 175.5C20.01 175.833 19.3267 176 18.42 176H14.94ZM16.24 174.98H18.34C18.8267 174.98 19.2 174.9 19.46 174.74C19.72 174.58 19.85 174.323 19.85 173.97C19.85 173.623 19.72 173.37 19.46 173.21C19.2 173.043 18.8267 172.96 18.34 172.96H16.14V171.95H18.08C18.5333 171.95 18.88 171.87 19.12 171.71C19.3667 171.55 19.49 171.31 19.49 170.99C19.49 170.663 19.3667 170.42 19.12 170.26C18.88 170.1 18.5333 170.02 18.08 170.02H16.24V174.98ZM25.5474 176V169H28.4274C29.0474 169 29.5774 169.1 30.0174 169.3C30.4641 169.5 30.8074 169.787 31.0474 170.16C31.2874 170.533 31.4074 170.977 31.4074 171.49C31.4074 172.003 31.2874 172.447 31.0474 172.82C30.8074 173.187 30.4641 173.47 30.0174 173.67C29.5774 173.863 29.0474 173.96 28.4274 173.96H26.2674L26.8474 173.37V176H25.5474ZM30.1274 176L28.3574 173.46H29.7474L31.5274 176H30.1274ZM26.8474 173.51L26.2674 172.89H28.3674C28.9408 172.89 29.3708 172.767 29.6574 172.52C29.9508 172.273 30.0974 171.93 30.0974 171.49C30.0974 171.043 29.9508 170.7 29.6574 170.46C29.3708 170.22 28.9408 170.1 28.3674 170.1H26.2674L26.8474 169.46V173.51ZM34.8719 176L38.0219 169H39.3019L42.4619 176H41.1019L38.3919 169.69H38.9119L36.2119 176H34.8719ZM36.3219 174.38L36.6719 173.36H40.4519L40.8019 174.38H36.3219ZM46.3521 176V169H47.4221L51.8121 174.39H51.2821V169H52.5721V176H51.5021L47.1121 170.61H47.6421V176H46.3521ZM57.4478 176V169H60.5078C61.2678 169 61.9345 169.147 62.5078 169.44C63.0811 169.733 63.5278 170.14 63.8478 170.66C64.1678 171.18 64.3278 171.793 64.3278 172.5C64.3278 173.2 64.1678 173.813 63.8478 174.34C63.5278 174.86 63.0811 175.267 62.5078 175.56C61.9345 175.853 61.2678 176 60.5078 176H57.4478ZM58.7478 174.9H60.4478C60.9745 174.9 61.4278 174.8 61.8078 174.6C62.1945 174.4 62.4911 174.12 62.6978 173.76C62.9111 173.4 63.0178 172.98 63.0178 172.5C63.0178 172.013 62.9111 171.593 62.6978 171.24C62.4911 170.88 62.1945 170.6 61.8078 170.4C61.4278 170.2 60.9745 170.1 60.4478 170.1H58.7478V174.9ZM75.6632 172.22H79.1532V173.32H75.6632V172.22ZM75.7732 176H74.4732V169H79.5832V170.09H75.7732V176ZM83.8404 176V169H85.1404V176H83.8404ZM91.2338 171.91H94.7138V172.98H91.2338V171.91ZM91.3338 174.91H95.2838V176H90.0338V169H95.1438V170.09H91.3338V174.91ZM101.903 176.1C101.356 176.1 100.833 176.023 100.333 175.87C99.833 175.71 99.4363 175.507 99.143 175.26L99.593 174.25C99.873 174.47 100.22 174.653 100.633 174.8C101.046 174.947 101.47 175.02 101.903 175.02C102.27 175.02 102.566 174.98 102.793 174.9C103.02 174.82 103.186 174.713 103.293 174.58C103.4 174.44 103.453 174.283 103.453 174.11C103.453 173.897 103.376 173.727 103.223 173.6C103.07 173.467 102.87 173.363 102.623 173.29C102.383 173.21 102.113 173.137 101.813 173.07C101.52 173.003 101.223 172.927 100.923 172.84C100.63 172.747 100.36 172.63 100.113 172.49C99.873 172.343 99.6763 172.15 99.523 171.91C99.3696 171.67 99.293 171.363 99.293 170.99C99.293 170.61 99.393 170.263 99.593 169.95C99.7996 169.63 100.11 169.377 100.523 169.19C100.943 168.997 101.473 168.9 102.113 168.9C102.533 168.9 102.95 168.953 103.363 169.06C103.776 169.167 104.136 169.32 104.443 169.52L104.033 170.53C103.72 170.343 103.396 170.207 103.063 170.12C102.73 170.027 102.41 169.98 102.103 169.98C101.743 169.98 101.45 170.023 101.223 170.11C101.003 170.197 100.84 170.31 100.733 170.45C100.633 170.59 100.583 170.75 100.583 170.93C100.583 171.143 100.656 171.317 100.803 171.45C100.956 171.577 101.153 171.677 101.393 171.75C101.64 171.823 101.913 171.897 102.213 171.97C102.513 172.037 102.81 172.113 103.103 172.2C103.403 172.287 103.673 172.4 103.913 172.54C104.16 172.68 104.356 172.87 104.503 173.11C104.656 173.35 104.733 173.653 104.733 174.02C104.733 174.393 104.63 174.74 104.423 175.06C104.223 175.373 103.913 175.627 103.493 175.82C103.073 176.007 102.543 176.1 101.903 176.1ZM110.344 176V170.1H108.024V169H113.964V170.1H111.644V176H110.344ZM116.598 176L119.748 169H121.028L124.188 176H122.828L120.118 169.69H120.638L117.938 176H116.598ZM118.048 174.38L118.398 173.36H122.178L122.528 174.38H118.048Z" fill="white"/>
<defs>
<linearGradient id="paint0_linear_73_1278" x1="33" y1="5.5" x2="187.227" y2="74.3451" gradientUnits="userSpaceOnUse">
<stop stop-color="#C00809"/>
<stop offset="1" stop-color="#FF0000" stop-opacity="0"/>
</linearGradient>
<linearGradient id="paint1_linear_73_1278" x1="11.1379" y1="-5.47273" x2="87.207" y2="30.701" gradientUnits="userSpaceOnUse">
<stop stop-color="#FF0000"/>
<stop offset="1" stop-color="#FF0000" stop-opacity="0"/>
</linearGradient>
<linearGradient id="paint2_linear_73_1278" x1="121.224" y1="57.8857" x2="133.519" y2="86.9496" gradientUnits="userSpaceOnUse">
<stop stop-color="#FF0000"/>
<stop offset="1" stop-color="#FF0000" stop-opacity="0"/>
</linearGradient>
<linearGradient id="paint3_linear_73_1278" x1="109.845" y1="-0.95608" x2="118.285" y2="31.086" gradientUnits="userSpaceOnUse">
<stop stop-color="#FF0000"/>
<stop offset="1" stop-color="#FF0000" stop-opacity="0"/>
</linearGradient>
<linearGradient id="paint4_linear_73_1278" x1="9.29204" y1="161.5" x2="136.776" y2="196.682" gradientUnits="userSpaceOnUse">
<stop offset="0.348061" stop-color="#0B3C43" stop-opacity="0.3"/>
<stop offset="1" stop-color="#0B3C43" stop-opacity="0.9"/>
</linearGradient>
</defs>
</svg>
