<svg width="130" height="167" viewBox="0 0 130 167" fill="none" xmlns="http://www.w3.org/2000/svg">
<g clip-path="url(#clip0_106_353)">
<path d="M9.46363 5.46547C6.53494 2.50714 0 0 0 0H13.8168H28.3908V130H0C0 130 6.53422 127.199 9.46363 124.145C11.6567 121.858 12.8705 117.117 12.8705 117.117V12.4925C12.8705 12.4925 11.6915 7.71588 9.46363 5.46547Z" fill="white"/>
<path d="M47.4799 3.11906H28.3904L28.3907 0.391602H47.4801C47.4801 0.391602 84.5448 1.54788 81.9239 25.344C79.3037 49.14 60.2129 54.6014 60.2129 54.6014C60.2129 54.6014 82.9206 56.4904 92.031 72.156C99.518 85.0294 99.2326 96.7678 94.6512 109.216C90.0706 121.663 79.2246 128.403 65 129.217C56.5378 129.701 45.5191 127.561 39.6338 121.69C32.76 114.833 28.663 108.333 28.3965 96.3418C28.383 95.7333 28.3965 94.7818 28.3965 94.7818H29.8938C29.8938 94.7818 34.32 113.208 47.486 120.138C59.8984 125.028 80.5492 122.594 85.289 98.6912C90.5431 69.875 56.1152 61.2932 56.1152 61.2932C56.1152 61.2932 41.871 62.8164 32.8869 85.0294C31.5373 88.3663 29.8938 94.0018 29.8938 94.0018H28.3965C28.3965 94.0018 28.4055 85.2299 30.6406 79.9579C35.4885 68.5241 49.3573 55.7718 49.3573 55.7718C49.3573 55.7718 66.5766 42.1182 67.6996 24.1737C68.8226 6.22908 47.4799 3.11906 47.4799 3.11906Z" fill="white" stroke="white"/>
<path opacity="0.7" d="M130 75.9639V53.2531C130 53.2531 122.722 57.76 117.672 59.7139C113.009 61.5186 105.345 63.0422 105.345 63.0422V66.1747C105.345 66.1747 113.009 67.6983 117.672 69.5031C122.722 71.457 130 75.9639 130 75.9639Z" fill="#AC0000"/>
<path opacity="0.7" d="M90.4023 0H130V22.7108C130 22.7108 124.074 14.3471 119.58 10.5723C109.491 2.09876 90.4023 3.13253 90.4023 3.13253V0Z" fill="#AC0000"/>
</g>
<rect x="0.928528" y="148" width="128.143" height="18" fill="url(#paint0_linear_106_353)"/>
<rect x="0.5" y="147.5" width="129" height="19" rx="0.5" stroke="#AC0000"/>
<path d="M5.38982 160V153.7H8.46782C9.25982 153.7 9.85382 153.85 10.2498 154.15C10.6518 154.45 10.8528 154.846 10.8528 155.338C10.8528 155.668 10.7718 155.956 10.6098 156.202C10.4478 156.442 10.2258 156.628 9.94382 156.76C9.66182 156.892 9.33782 156.958 8.97182 156.958L9.14282 156.589C9.53882 156.589 9.88982 156.655 10.1958 156.787C10.5018 156.913 10.7388 157.102 10.9068 157.354C11.0808 157.606 11.1678 157.915 11.1678 158.281C11.1678 158.821 10.9548 159.244 10.5288 159.55C10.1028 159.85 9.47582 160 8.64782 160H5.38982ZM6.83882 158.902H8.53982C8.91782 158.902 9.20282 158.842 9.39482 158.722C9.59282 158.596 9.69182 158.398 9.69182 158.128C9.69182 157.864 9.59282 157.669 9.39482 157.543C9.20282 157.411 8.91782 157.345 8.53982 157.345H6.73082V156.283H8.28782C8.64182 156.283 8.91182 156.223 9.09782 156.103C9.28982 155.977 9.38582 155.788 9.38582 155.536C9.38582 155.29 9.28982 155.107 9.09782 154.987C8.91182 154.861 8.64182 154.798 8.28782 154.798H6.83882V158.902ZM17.0417 160V153.7H19.7687C20.3327 153.7 20.8187 153.793 21.2267 153.979C21.6347 154.159 21.9497 154.42 22.1717 154.762C22.3937 155.104 22.5047 155.512 22.5047 155.986C22.5047 156.454 22.3937 156.859 22.1717 157.201C21.9497 157.537 21.6347 157.795 21.2267 157.975C20.8187 158.155 20.3327 158.245 19.7687 158.245H17.8517L18.4997 157.606V160H17.0417ZM21.0467 160L19.4717 157.714H21.0287L22.6217 160H21.0467ZM18.4997 157.768L17.8517 157.084H19.6877C20.1377 157.084 20.4737 156.988 20.6957 156.796C20.9177 156.598 21.0287 156.328 21.0287 155.986C21.0287 155.638 20.9177 155.368 20.6957 155.176C20.4737 154.984 20.1377 154.888 19.6877 154.888H17.8517L18.4997 154.195V157.768ZM27.6018 160L30.4098 153.7H31.8498L34.6668 160H33.1368L30.8328 154.438H31.4088L29.0958 160H27.6018ZM29.0058 158.65L29.3928 157.543H32.6328L33.0288 158.65H29.0058ZM40.0904 160V153.7H41.2964L45.0134 158.236H44.4284V153.7H45.8684V160H44.6714L40.9454 155.464H41.5304V160H40.0904ZM52.129 160V153.7H54.991C55.675 153.7 56.278 153.832 56.8 154.096C57.322 154.354 57.73 154.717 58.024 155.185C58.318 155.653 58.465 156.208 58.465 156.85C58.465 157.486 58.318 158.041 58.024 158.515C57.73 158.983 57.322 159.349 56.8 159.613C56.278 159.871 55.675 160 54.991 160H52.129ZM53.587 158.803H54.919C55.339 158.803 55.702 158.725 56.008 158.569C56.32 158.407 56.56 158.179 56.728 157.885C56.902 157.591 56.989 157.246 56.989 156.85C56.989 156.448 56.902 156.103 56.728 155.815C56.56 155.521 56.32 155.296 56.008 155.14C55.702 154.978 55.339 154.897 54.919 154.897H53.587V158.803ZM65.6845 156.535H68.7085V157.705H65.6845V156.535ZM65.7925 160H64.3345V153.7H69.0955V154.87H65.7925V160ZM74.8526 160V153.7H76.3106V160H74.8526ZM83.9167 156.238H86.9497V157.372H83.9167V156.238ZM84.0247 158.83H87.4537V160H82.5757V153.7H87.3367V154.87H84.0247V158.83ZM95.4538 160.108C94.9498 160.108 94.4668 160.042 94.0048 159.91C93.5428 159.772 93.1708 159.595 92.8888 159.379L93.3838 158.281C93.6538 158.473 93.9718 158.632 94.3378 158.758C94.7098 158.878 95.0848 158.938 95.4628 158.938C95.7508 158.938 95.9818 158.911 96.1558 158.857C96.3358 158.797 96.4678 158.716 96.5518 158.614C96.6358 158.512 96.6778 158.395 96.6778 158.263C96.6778 158.095 96.6118 157.963 96.4798 157.867C96.3478 157.765 96.1738 157.684 95.9578 157.624C95.7418 157.558 95.5018 157.498 95.2378 157.444C94.9798 157.384 94.7188 157.312 94.4548 157.228C94.1968 157.144 93.9598 157.036 93.7438 156.904C93.5278 156.772 93.3508 156.598 93.2128 156.382C93.0808 156.166 93.0148 155.89 93.0148 155.554C93.0148 155.194 93.1108 154.867 93.3028 154.573C93.5008 154.273 93.7948 154.036 94.1848 153.862C94.5808 153.682 95.0758 153.592 95.6698 153.592C96.0658 153.592 96.4558 153.64 96.8398 153.736C97.2238 153.826 97.5628 153.964 97.8568 154.15L97.4068 155.257C97.1128 155.089 96.8188 154.966 96.5248 154.888C96.2308 154.804 95.9428 154.762 95.6608 154.762C95.3788 154.762 95.1478 154.795 94.9678 154.861C94.7878 154.927 94.6588 155.014 94.5808 155.122C94.5028 155.224 94.4638 155.344 94.4638 155.482C94.4638 155.644 94.5298 155.776 94.6618 155.878C94.7938 155.974 94.9678 156.052 95.1838 156.112C95.3998 156.172 95.6368 156.232 95.8948 156.292C96.1588 156.352 96.4198 156.421 96.6778 156.499C96.9418 156.577 97.1818 156.682 97.3978 156.814C97.6138 156.946 97.7878 157.12 97.9198 157.336C98.0578 157.552 98.1268 157.825 98.1268 158.155C98.1268 158.509 98.0278 158.833 97.8298 159.127C97.6318 159.421 97.3348 159.658 96.9388 159.838C96.5488 160.018 96.0538 160.108 95.4538 160.108ZM105.11 160V154.888H103.094V153.7H108.584V154.888H106.568V160H105.11ZM112.994 160L115.802 153.7H117.242L120.059 160H118.529L116.225 154.438H116.801L114.488 160H112.994ZM114.398 158.65L114.785 157.543H118.025L118.421 158.65H114.398Z" fill="white"/>
<defs>
<linearGradient id="paint0_linear_106_353" x1="-9.75004" y1="148" x2="142.071" y2="148" gradientUnits="userSpaceOnUse">
<stop stop-color="#AC0000" stop-opacity="0.5"/>
<stop offset="0.520591" stop-color="#AC0000" stop-opacity="0.15"/>
<stop offset="1" stop-color="#AC0000" stop-opacity="0.5"/>
</linearGradient>
<clipPath id="clip0_106_353">
<rect width="130" height="130" fill="white"/>
</clipPath>
</defs>
</svg>
