<svg width="36" height="36" viewBox="0 0 36 36" fill="none" xmlns="http://www.w3.org/2000/svg">
<g opacity="0.5">
<path opacity="0.6" d="M6 23L12.2875 16.7125C12.3805 16.618 12.4915 16.543 12.6138 16.4918C12.7361 16.4405 12.8674 16.4142 13 16.4142C13.1326 16.4142 13.2639 16.4405 13.3862 16.4918C13.5085 16.543 13.6195 16.618 13.7125 16.7125L19.2875 22.2875C19.3805 22.382 19.4915 22.457 19.6138 22.5082C19.7361 22.5595 19.8674 22.5858 20 22.5858C20.1326 22.5858 20.2639 22.5595 20.3862 22.5082C20.5085 22.457 20.6195 22.382 20.7125 22.2875L23.2875 19.7125C23.3805 19.618 23.4915 19.543 23.6138 19.4918C23.7361 19.4405 23.8674 19.4142 24 19.4142C24.1326 19.4142 24.2639 19.4405 24.3862 19.4918C24.5085 19.543 24.6195 19.618 24.7125 19.7125L30 25V9C30 8.73478 29.8946 8.48043 29.7071 8.29289C29.5196 8.10536 29.2652 8 29 8H7C6.73478 8 6.48043 8.10536 6.29289 8.29289C6.10536 8.48043 6 8.73478 6 9V23Z" fill="white"/>
<path d="M29 8H7C6.44772 8 6 8.44772 6 9V27C6 27.5523 6.44772 28 7 28H29C29.5523 28 30 27.5523 30 27V9C30 8.44772 29.5523 8 29 8Z" stroke="white" stroke-width="1.5" stroke-linecap="round" stroke-linejoin="round"/>
<path d="M6 23L12.2875 16.7125C12.3805 16.618 12.4915 16.543 12.6138 16.4918C12.7361 16.4406 12.8674 16.4142 13 16.4142C13.1326 16.4142 13.2639 16.4406 13.3862 16.4918C13.5085 16.543 13.6195 16.618 13.7125 16.7125L19.2875 22.2875C19.3805 22.382 19.4915 22.457 19.6138 22.5082C19.7361 22.5595 19.8674 22.5858 20 22.5858C20.1326 22.5858 20.2639 22.5595 20.3862 22.5082C20.5085 22.457 20.6195 22.382 20.7125 22.2875L23.2875 19.7125C23.3805 19.618 23.4915 19.543 23.6138 19.4918C23.7361 19.4406 23.8674 19.4142 24 19.4142C24.1326 19.4142 24.2639 19.4406 24.3862 19.4918C24.5085 19.543 24.6195 19.618 24.7125 19.7125L30 25" stroke="white" stroke-width="1.5" stroke-linecap="round" stroke-linejoin="round"/>
<path d="M21.5 16C22.3284 16 23 15.3284 23 14.5C23 13.6716 22.3284 13 21.5 13C20.6716 13 20 13.6716 20 14.5C20 15.3284 20.6716 16 21.5 16Z" fill="white"/>
</g>
</svg>
