<svg width="37" height="36" viewBox="0 0 37 36" fill="none" xmlns="http://www.w3.org/2000/svg">
<path opacity="0.6" d="M13.7625 17.6C14.7915 19.725 16.5099 21.4389 18.6375 22.4625C18.7945 22.5368 18.968 22.569 19.1412 22.5558C19.3144 22.5427 19.4811 22.4847 19.625 22.3875L22.75 20.3C22.8881 20.2064 23.0476 20.1492 23.2137 20.1339C23.3799 20.1186 23.5472 20.1457 23.7 20.2125L29.55 22.725C29.7499 22.8082 29.917 22.9549 30.0254 23.1423C30.1338 23.3298 30.1776 23.5477 30.15 23.7625C29.9646 25.2097 29.2582 26.5397 28.1631 27.5037C27.0679 28.4677 25.659 28.9997 24.2 29C19.6913 29 15.3673 27.2089 12.1792 24.0208C8.99108 20.8327 7.20001 16.5087 7.20001 12C7.20034 10.541 7.73228 9.13211 8.69629 8.03696C9.66031 6.9418 10.9903 6.23543 12.4375 6.05001C12.6523 6.02242 12.8702 6.0662 13.0577 6.17462C13.2452 6.28304 13.3918 6.45007 13.475 6.65001L15.9875 12.5125C16.0528 12.6629 16.0802 12.8271 16.0671 12.9906C16.054 13.1541 16.0009 13.3119 15.9125 13.45L13.825 16.625C13.7321 16.7686 13.6775 16.9337 13.6666 17.1044C13.6556 17.2751 13.6887 17.4457 13.7625 17.6Z" fill="#AC0000"/>
<path d="M13.7625 17.6C14.7915 19.725 16.5099 21.4389 18.6375 22.4625C18.7945 22.5368 18.968 22.569 19.1412 22.5558C19.3143 22.5427 19.4811 22.4847 19.625 22.3875L22.75 20.3C22.8881 20.2064 23.0476 20.1492 23.2137 20.1339C23.3799 20.1186 23.5472 20.1457 23.7 20.2125L29.55 22.725C29.7499 22.8082 29.917 22.9549 30.0254 23.1423C30.1338 23.3298 30.1776 23.5477 30.15 23.7625C29.9646 25.2097 29.2582 26.5397 28.1631 27.5037C27.0679 28.4677 25.659 28.9997 24.2 29C19.6913 29 15.3673 27.2089 12.1792 24.0208C8.99108 20.8327 7.20001 16.5087 7.20001 12C7.20034 10.541 7.73228 9.13211 8.69629 8.03696C9.66031 6.9418 10.9903 6.23543 12.4375 6.05001C12.6523 6.02242 12.8702 6.0662 13.0577 6.17462C13.2452 6.28304 13.3918 6.45007 13.475 6.65001L15.9875 12.5125C16.0528 12.6629 16.0802 12.8271 16.0671 12.9906C16.054 13.1541 16.0009 13.3119 15.9125 13.45L13.825 16.625C13.7321 16.7686 13.6775 16.9337 13.6666 17.1044C13.6556 17.2751 13.6887 17.4457 13.7625 17.6V17.6Z" stroke="white" stroke-width="1.5" stroke-linecap="round" stroke-linejoin="round"/>
</svg>
