<svg width="25" height="23" viewBox="0 0 25 23" fill="none" xmlns="http://www.w3.org/2000/svg">
<path d="M12.5 16.2917C12.7951 16.2917 13.0427 16.1997 13.2427 16.0157C13.442 15.8323 13.5416 15.6049 13.5416 15.3333V11.5C13.5416 11.2285 13.442 11.0007 13.2427 10.8167C13.0427 10.6333 12.7951 10.5417 12.5 10.5417C12.2048 10.5417 11.9576 10.6333 11.7583 10.8167C11.5583 11.0007 11.4583 11.2285 11.4583 11.5V15.3333C11.4583 15.6049 11.5583 15.8323 11.7583 16.0157C11.9576 16.1997 12.2048 16.2917 12.5 16.2917ZM12.5 8.625C12.7951 8.625 13.0427 8.533 13.2427 8.349C13.442 8.16564 13.5416 7.93819 13.5416 7.66667C13.5416 7.39514 13.442 7.16738 13.2427 6.98338C13.0427 6.80001 12.7951 6.70833 12.5 6.70833C12.2048 6.70833 11.9576 6.80001 11.7583 6.98338C11.5583 7.16738 11.4583 7.39514 11.4583 7.66667C11.4583 7.93819 11.5583 8.16564 11.7583 8.349C11.9576 8.533 12.2048 8.625 12.5 8.625ZM12.5 21.0115H12.2395C12.1527 21.0115 12.0746 20.9955 12.0052 20.9635C9.73086 20.3087 7.85586 19.0108 6.38017 17.0698C4.90447 15.1295 4.16663 12.9854 4.16663 10.6375V6.10938C4.16663 5.71007 4.29267 5.35069 4.54475 5.03125C4.79614 4.71181 5.12149 4.48021 5.52079 4.33646L11.7708 2.18021C12.0138 2.10035 12.2569 2.06042 12.5 2.06042C12.743 2.06042 12.9861 2.10035 13.2291 2.18021L19.4791 4.33646C19.8784 4.48021 20.2041 4.71181 20.4562 5.03125C20.7076 5.35069 20.8333 5.71007 20.8333 6.10938V10.6375C20.8333 12.9854 20.0954 15.1295 18.6198 17.0698C17.1441 19.0108 15.2691 20.3087 12.9948 20.9635C12.9079 20.9955 12.743 21.0115 12.5 21.0115ZM12.5 19.0708C14.3055 18.5437 15.7986 17.4896 16.9791 15.9083C18.1597 14.3271 18.75 12.5701 18.75 10.6375V6.10938L12.5 3.95313L6.24996 6.10938V10.6375C6.24996 12.5701 6.84024 14.3271 8.02079 15.9083C9.20135 17.4896 10.6944 18.5437 12.5 19.0708Z" fill="#009EE1"/>
</svg>
