<svg width="20" height="20" viewBox="0 0 20 20" fill="none" xmlns="http://www.w3.org/2000/svg">
<path d="M5.10734 20C4.68122 20 4.25824 19.8614 3.89606 19.5886C3.25422 19.1046 2.93799 18.2988 3.07092 17.486L3.75462 13.3101C3.79445 13.0675 3.71684 12.8201 3.54721 12.6487L0.627693 9.69548C0.059218 9.12064 -0.1421 8.27628 0.102002 7.49158C0.346104 6.70705 0.985136 6.14544 1.76918 6.02576L5.79875 5.41163C6.03297 5.37608 6.23522 5.2228 6.33977 5.00184L8.13787 1.20116C8.48811 0.461293 9.19784 0.00112714 9.99083 0H9.99334C10.7852 0 11.4951 0.458246 11.8463 1.19677L13.6529 4.9929C13.7581 5.21354 13.9606 5.36617 14.1947 5.40156L18.2255 6.00558C19.0103 6.12316 19.6506 6.68329 19.8966 7.46719C20.1424 8.25106 19.9427 9.09612 19.3757 9.67238L16.463 12.6328C16.2936 12.8048 16.2167 13.0527 16.2568 13.2953L16.9502 17.4691C17.0854 18.282 16.7709 19.0882 16.1301 19.5738C15.4893 20.059 14.6553 20.1232 13.9529 19.74L10.3461 17.7732C10.1363 17.6587 9.88643 17.6596 9.67696 17.7742L6.07435 19.7496C5.76769 19.9172 5.43672 19.9999 5.10733 19.9999L5.10734 20ZM9.99299 1.403H9.99205C9.7122 1.40316 9.47122 1.55938 9.34768 1.82079L7.54959 5.62147C7.24904 6.25663 6.66742 6.69726 5.99403 6.79967L1.96446 7.41379C1.68759 7.45603 1.47091 7.64665 1.38454 7.92372C1.29847 8.20077 1.36683 8.48712 1.56735 8.68997L4.48686 11.6433C4.97507 12.1366 5.19818 12.8479 5.08387 13.546L4.40017 17.7219C4.35313 18.0089 4.46037 18.282 4.68723 18.4531C4.91361 18.6235 5.1969 18.6445 5.44446 18.509L9.04707 16.5336C9.64894 16.2031 10.3679 16.2021 10.9712 16.5308L14.578 18.4976C14.8262 18.633 15.1089 18.6113 15.3352 18.4399C15.5616 18.2685 15.6681 17.995 15.6207 17.7079L14.9273 13.5341C14.8116 12.8363 15.0332 12.1243 15.5198 11.6298L18.4326 8.66924C18.6328 8.46589 18.7005 8.17923 18.614 7.90249C18.527 7.62577 18.3097 7.43561 18.0328 7.39403L14.002 6.79001C13.3285 6.68906 12.7459 6.2499 12.4438 5.61557L10.6373 1.81927C10.5132 1.55868 10.2724 1.40311 9.99289 1.40311L9.99299 1.403Z" fill="#009EE1"/>
</svg>
