<svg width="15" height="15" viewBox="0 0 15 15" fill="none" xmlns="http://www.w3.org/2000/svg">
<g clip-path="url(#clip0_2_12)">
<path d="M12.5 3.59375H8.75C8.49375 3.59375 8.28125 3.38125 8.28125 3.125C8.28125 2.86875 8.49375 2.65625 8.75 2.65625H12.5C12.7562 2.65625 12.9688 2.86875 12.9688 3.125C12.9688 3.38125 12.7562 3.59375 12.5 3.59375Z" fill="#676767"/>
<path d="M10.625 5.46875H8.75C8.49375 5.46875 8.28125 5.25625 8.28125 5C8.28125 4.74375 8.49375 4.53125 8.75 4.53125H10.625C10.8812 4.53125 11.0938 4.74375 11.0938 5C11.0938 5.25625 10.8812 5.46875 10.625 5.46875Z" fill="#676767"/>
<path d="M7.1875 13.5938C3.65625 13.5938 0.78125 10.7188 0.78125 7.1875C0.78125 3.65625 3.65625 0.78125 7.1875 0.78125C7.44375 0.78125 7.65625 0.99375 7.65625 1.25C7.65625 1.50625 7.44375 1.71875 7.1875 1.71875C4.16875 1.71875 1.71875 4.175 1.71875 7.1875C1.71875 10.2 4.16875 12.6562 7.1875 12.6562C10.2063 12.6562 12.6562 10.2 12.6562 7.1875C12.6562 6.93125 12.8687 6.71875 13.125 6.71875C13.3813 6.71875 13.5938 6.93125 13.5938 7.1875C13.5938 10.7188 10.7188 13.5938 7.1875 13.5938Z" fill="#676767"/>
<path d="M13.75 14.2187C13.6312 14.2187 13.5125 14.175 13.4187 14.0812L12.1687 12.8312C11.9875 12.65 11.9875 12.35 12.1687 12.1687C12.35 11.9875 12.65 11.9875 12.8312 12.1687L14.0812 13.4187C14.2625 13.6 14.2625 13.9 14.0812 14.0812C13.9875 14.175 13.8687 14.2187 13.75 14.2187Z" fill="#676767"/>
</g>
<defs>
<clipPath id="clip0_2_12">
<rect width="15" height="15" fill="white"/>
</clipPath>
</defs>
</svg>
