<svg width="20" height="20" viewBox="0 0 20 20" fill="none" xmlns="http://www.w3.org/2000/svg">
<path d="M16.447 6.9672C17.4124 6.97153 18.3365 6.57586 18.999 5.8743C19.6617 5.17274 20.0033 4.22798 19.9429 3.26542C19.8823 2.3027 19.4251 1.40811 18.68 0.794764C17.9347 0.18142 16.9685 -0.095669 16.0111 0.029441C15.0537 0.154365 14.1912 0.670327 13.6289 1.45439C13.0665 2.23846 12.8547 3.22036 13.0439 4.16623L6.05494 7.6575C5.42589 6.95654 4.53855 6.54122 3.5968 6.50702C2.65508 6.47297 1.73985 6.82282 1.06151 7.4764C0.383161 8.12981 0 9.03094 0 9.97241C0 10.9139 0.383169 11.815 1.06151 12.4684C1.73985 13.122 2.65508 13.4719 3.5968 13.4378C4.53852 13.4036 5.42585 12.9883 6.05494 12.2873L13.0439 15.7786C12.8124 16.8986 13.1415 18.0612 13.9256 18.8943C14.7099 19.7273 15.851 20.1267 16.9843 19.9645C18.1173 19.8021 19.1005 19.0986 19.6189 18.079C20.1373 17.0593 20.1263 15.8512 19.5891 14.8413C19.0521 13.8314 18.0563 13.1459 16.9205 13.0044C15.7846 12.8629 14.6509 13.283 13.8819 14.1304L6.89301 10.6391C6.98303 10.1992 6.98303 9.74562 6.89301 9.30581L13.8819 5.81454H13.8818C14.5341 6.54534 15.4668 6.96443 16.4468 6.9672H16.447Z" fill="#009EE1"/>
</svg>
