<svg width="37" height="36" viewBox="0 0 37 36" fill="none" xmlns="http://www.w3.org/2000/svg">
<path opacity="0.6" d="M18.8 30C25.4275 30 30.8 24.6274 30.8 18C30.8 11.3726 25.4275 6 18.8 6C12.1726 6 6.80005 11.3726 6.80005 18C6.80005 24.6274 12.1726 30 18.8 30Z" fill="#AC0000"/>
<path d="M18.8 30C25.4275 30 30.8 24.6274 30.8 18C30.8 11.3726 25.4275 6 18.8 6C12.1726 6 6.80005 11.3726 6.80005 18C6.80005 24.6274 12.1726 30 18.8 30Z" stroke="white" stroke-width="1.5" stroke-miterlimit="10"/>
<path d="M7.48755 14H30.1125" stroke="white" stroke-width="1.5" stroke-linecap="round" stroke-linejoin="round"/>
<path d="M7.48755 22H30.1125" stroke="white" stroke-width="1.5" stroke-linecap="round" stroke-linejoin="round"/>
<path d="M18.8 29.675C21.5615 29.675 23.8 24.4479 23.8 18C23.8 11.5521 21.5615 6.32501 18.8 6.32501C16.0386 6.32501 13.8 11.5521 13.8 18C13.8 24.4479 16.0386 29.675 18.8 29.675Z" stroke="white" stroke-width="1.5" stroke-miterlimit="10"/>
</svg>
